<?xml version="1.0" encoding="utf-8"?>
<!-- Generator: Adobe Illustrator 22.1.0, SVG Export Plug-In . SVG Version: 6.00 Build 0)  -->
<svg version="1.1" id="Layer_1" xmlns="http://www.w3.org/2000/svg" xmlns:xlink="http://www.w3.org/1999/xlink" x="0px" y="0px"
	 viewBox="0 0 582 169" style="enable-background:new 0 0 582 169;" xml:space="preserve">
<style type="text/css">
	.st0{fill:#FF9662;}
	.st1{fill:#231C19;}
</style>
<g>
	<rect x="385.5" y="153.1" class="st0" width="78.7" height="13.1"/>
	<g>
		<polygon class="st1" points="536.5,76.6 510.4,113.7 484.4,76.6 466.6,76.6 502.6,127.6 502.6,166.2 518.3,166.2 518.3,127.6 
			518.3,127.5 554.3,76.6 		"/>
		<path class="st1" d="M64.8,119.7l-1.2-0.9l1.1-1.1c4.3-4.5,6.7-10.2,6.7-16.1c0-13.8-12.7-25-28.2-25H1v89.6h44.4
			c16.5,0,29.9-11.8,29.9-26.4C75.3,132.1,71.5,124.7,64.8,119.7 M16.7,89.7H43c7.3,0,13.3,5.3,13.3,11.9c0,6.5-6,11.8-13.3,11.8
			H16.7V89.7z M45.4,153.1H16.7v-26.6h28.8c8.2,0,14.9,6,14.9,13.3C60.4,147.1,53.7,153.1,45.4,153.1"/>
		<polygon class="st1" points="336.7,136.4 310.8,76.6 293.6,76.6 333.1,166.2 340.3,166.2 379.9,76.6 362.6,76.6 		"/>
		<path class="st1" d="M137.8,74.8c-25.7,0-46.6,20.9-46.6,46.6S112,168,137.8,168s46.6-20.9,46.6-46.6S163.5,74.8,137.8,74.8z
			 M137.8,152.7c-17.2,0-31.3-14-31.3-31.3c0-17.2,14-31.3,31.3-31.3c17.2,0,31.3,14,31.3,31.3C169,138.6,155,152.7,137.8,152.7z"/>
		<polygon class="st1" points="261.7,134.4 210.8,76.6 203,76.6 203,166.2 218.6,166.2 218.6,108.4 269.5,166.2 277.3,166.2 
			277.3,76.6 261.7,76.6 		"/>
		<path class="st1" d="M424.8,74.8c-17.2,0-31.3,14-31.3,31.3c0,17.2,14,31.3,31.3,31.3c17.2,0,31.3-14,31.3-31.3
			C456.1,88.8,442.1,74.8,424.8,74.8z M424.8,124.1c-9.9,0-18-8.1-18-18c0-9.9,8.1-18,18-18c9.9,0,18,8.1,18,18
			C442.9,116,434.8,124.1,424.8,124.1z"/>
		<polygon class="st1" points="85.7,16.4 85.7,46.7 77.4,46.7 77.4,1.9 77.4,1.9 77.4,1.9 86.7,1.9 100.6,26.7 114.4,1.9 123.7,1.9 
			123.7,1.9 123.7,1.9 123.7,46.7 115.4,46.7 115.4,16.4 103.6,38.1 97.5,38.1 		"/>
		<polygon class="st1" points="443.2,1.9 443.2,9.6 456.4,9.6 456.4,46.7 464.7,46.7 464.7,9.6 478,9.6 478,1.9 		"/>
		<polygon class="st1" points="394.8,1.9 394.8,9.6 408,9.6 408,46.7 416.3,46.7 416.3,9.6 429.6,9.6 429.6,1.9 		"/>
		<rect x="311.4" y="1.9" class="st1" width="8.4" height="44.8"/>
		<path class="st1" d="M208.5,28.6h6.8l12.5,18.2h9.6l-12.7-18.3c7.2-1,12.7-6.5,12.7-13.2v0v0c0-7.4-6.8-13.3-15.1-13.3h-22.2v44.8
			h8.4V28.6z M208.5,9h13.9c3.9,0,7.1,2.8,7.1,6.3v0v0c0,3.4-3.2,6.2-7.1,6.2h-13.9V9z"/>
		<path class="st1" d="M162.5,16.8l6.5,14.1h-13L162.5,16.8z M160.5,1.9l-20.8,44.8h8.9l4-8.6h19.7l4,8.6h8.9L164.6,1.9H160.5z"/>
		<path class="st1" d="M277.4,1.9h-22.2v44.8h8.4V28.6h6.8l12.5,18.2h9.6l-12.7-18.3c7.2-1,12.7-6.5,12.7-13.2v0v0
			C292.4,7.9,285.7,1.9,277.4,1.9 M284.4,15.2L284.4,15.2c0,3.4-3.2,6.3-7.1,6.3h-13.9V9h13.9C281.3,9,284.4,11.8,284.4,15.2
			L284.4,15.2z"/>
		<path class="st1" d="M359.9,1c-12.9,0-23.3,10.4-23.3,23.3c0,12.9,10.4,23.3,23.3,23.3s23.3-10.4,23.3-23.3
			C383.2,11.4,372.8,1,359.9,1z M359.9,39.2c-8.2,0-14.9-6.7-14.9-14.9c0-8.2,6.7-14.9,14.9-14.9c8.2,0,14.9,6.7,14.9,14.9
			C374.9,32.5,368.2,39.2,359.9,39.2z"/>
	</g>
	<g>
		<g>
			<path class="st1" d="M563.9,77.8h-3.6v-1.4h8.7v1.4h-3.6v9.9h-1.5V77.8z"/>
			<path class="st1" d="M571.8,87.7h-1.4V76.4h2.2l2.8,8.6c0.1,0.4,0.2,0.7,0.3,0.9c0.1-0.3,0.2-0.6,0.3-0.9l2.9-8.6h2.2v11.3h-1.5
				v-9.6c-0.1,0.4-0.2,0.7-0.3,1l-2.9,8.6h-1.4l-2.8-8.6c-0.1-0.3-0.2-0.6-0.3-1V87.7z"/>
		</g>
	</g>
</g>
</svg>
