<svg xmlns="http://www.w3.org/2000/svg" width="186" height="183" viewBox="0 0 186 183" preserveAspectRatio="xMidYMid meet">
    <g transform="translate(0,183) scale(0.1,-0.1)" stroke="none">
      <path d="M734 1696 c-123 -57 -207 -216 -203 -381 1 -47 -4 -82 -15 -107 -20 -46 -20 -75 -1 -112 8 -15 15 -38 15 -50 0 -39 -47 -120 -128 -221 -94 -116 -168 -234 -193 -308 -23 -65 -24 -156 -3 -200 16 -33 15 -35 -15 -95 -17 -34 -31 -68 -31 -77 0 -28 17 -15 36 27 34 77 110 183 165 231 56 50 136 93 190 104 l32 6 -6 -86 c-5 -75 -38 -197 -82 -309 -5 -12 -2 -18 8 -18 8 0 22 18 31 40 16 39 29 49 41 30 3 -5 36 -19 73 -31 131 -41 421 -36 588 10 l66 19 14 -34 c8 -19 21 -34 30 -34 12 0 14 5 9 18 -58 134 -109 362 -86 385 14 14 137 -47 197 -98 54 -46 132 -156 166 -232 19 -44 38 -57 38 -26 0 9 -16 45 -35 80 -32 59 -34 66 -21 91 25 49 28 89 12 151 -27 107 -88 209 -226 382 -93 116 -120 176 -100 223 21 50 23 102 7 135 -12 23 -14 50 -10 105 13 170 -96 362 -225 395 -20 5 -94 10 -163 10 -110 0 -132 -3 -175 -23z m301 -337 c22 -9 60 -20 84 -24 l44 -7 -6 -104 c-8 -124 -2 -128 72 -59 26 25 51 42 54 38 4 -3 7 -26 7 -50 0 -52 -28 -86 -63 -78 -19 5 -26 -4 -59 -72 -60 -128 -168 -223 -253 -223 -82 0 -197 99 -262 226 -33 65 -41 74 -60 69 -32 -7 -63 30 -63 74 0 66 13 69 70 18 58 -52 86 -61 76 -24 -12 42 -19 135 -12 161 6 23 11 26 53 26 61 0 124 31 170 84 l37 42 35 -40 c20 -21 54 -47 76 -57z m-175 -595 c52 -20 74 -17 161 20 14 6 17 -3 21 -57 8 -90 37 -152 84 -174 l36 -18 -5 -56 c-6 -73 -47 -156 -109 -224 -77 -85 -132 -104 -199 -70 -65 34 -145 175 -167 294 -9 50 -9 52 18 66 15 8 34 24 42 37 21 32 48 129 48 173 0 32 3 36 18 30 9 -4 33 -14 52 -21z m-208 -274 c5 -31 1 -34 -26 -24 -19 7 -21 50 -3 57 18 7 24 0 29 -33z m586 3 c-2 -20 -9 -29 -25 -31 -20 -3 -23 1 -23 27 0 27 4 31 26 31 22 0 25 -4 22 -27z m-560 -109 c10 -33 9 -35 -11 -28 -59 18 -69 25 -63 40 3 9 6 22 6 29 0 11 6 12 28 4 20 -7 32 -20 40 -45z m562 17 c0 -29 -18 -41 -63 -41 -14 0 -17 5 -11 23 10 34 24 47 50 47 20 0 24 -5 24 -29z m-518 -113 c26 -35 22 -41 -23 -34 -71 11 -109 32 -109 59 0 13 2 26 5 29 11 10 109 -31 127 -54z m536 20 c3 -25 0 -27 -67 -42 -103 -24 -107 -23 -82 17 14 23 33 35 63 44 63 17 82 13 86 -19z m-627 -67 c31 -10 75 -22 100 -26 24 -4 53 -15 64 -25 11 -10 34 -26 50 -34 l30 -16 -35 0 c-41 0 -131 14 -187 29 -56 15 -93 46 -86 71 3 11 6 20 8 20 1 0 26 -8 56 -19z m653 -17 c4 -15 6 -28 4 -29 -15 -13 -258 -55 -316 -55 -7 0 7 15 31 34 38 29 62 37 138 51 51 8 95 18 98 20 14 14 40 2 45 -21z"/>
      <path d="M752 1223 c2 -44 7 -58 18 -58 12 0 15 13 15 55 0 45 -3 55 -18 58 -16 3 -18 -3 -15 -55z"/>
      <path d="M1022 1223 c2 -44 7 -58 18 -58 12 0 15 13 15 55 0 45 -3 55 -18 58 -16 3 -18 -3 -15 -55z"/>
      <path d="M890 1177 c0 -21 -8 -41 -20 -52 -11 -10 -20 -26 -20 -35 0 -19 30 -50 48 -50 16 0 15 10 -5 32 -15 17 -15 19 0 36 19 20 24 102 7 102 -5 0 -10 -15 -10 -33z"/>
      <path d="M968 1004 c-9 -9 -31 -19 -49 -23 -41 -8 -51 -31 -14 -31 34 0 82 25 95 50 14 25 -8 28 -32 4z"/>
    </g>
  </svg>
  