<?xml version="1.0" encoding="utf-8"?>
<!-- Generator: Adobe Illustrator 19.0.0, SVG Export Plug-In . SVG Version: 6.00 Build 0)  -->
<svg version="1.1" id="layer" xmlns="http://www.w3.org/2000/svg" xmlns:xlink="http://www.w3.org/1999/xlink" x="0px" y="0px"
	 viewBox="-153 -46 652 652" style="enable-background:new -153 -46 652 652;" xml:space="preserve">
<style type="text/css">
	.st0{fill:#E62310;}
</style>
<path class="st0" d="M55.9,30.3c-37.1,0-59.4,22.3-59.4,49.6c0,27.2,22.3,49.3,59.4,49.3c37.1,0,59.3-22.2,59.3-49.3
	C115.1,52.6,93,30.3,55.9,30.3 M55.9,118.6c-17.2,0-30.2-17.4-30.2-38.7c0-21.5,12.9-38.7,30.2-38.7C73,41.1,86,58.4,86,79.9
	C86,101.2,73,118.6,55.9,118.6 M220,45h-37.2v80.3h-29.3V45h-37.4V34.2H220V45z M333.4,45h-37.2v80.3h-29.5V45h-37.1V34.2h103.8V45z
	 M381,44.9c-6.3,0.5-9,3.1-9,10.1v13.9h57v10.7h-57v24.8c0,7.1,2.7,9.6,9,10h49v11h-73.5c-6.5-0.3-13.8-2.9-13.8-14.9V48.7
	c0-11.8,7.3-14.3,13.8-14.5H430v10.6H381 M-3,114.3v11h-66.7c-6.5-0.3-13.8-2.9-13.8-14.9V34.2h29.3v70.2c0,7.1,2.7,9.5,8.9,10H-3z"
	/>
<path class="st0" d="M24.4,243.7c-2.2-3.4-4.8-6.1-7.6-7.9c-3-1.9-5.8-2.9-9-2.9H-2c-2.6,0-4.4,0.8-5.7,2.5c-1,1.9-1.6,4.9-1.6,8.8
	v55.1c0,4.2,0.6,7.1,1.6,8.8c1.3,1.7,3.1,2.7,5.7,2.7h9.8c3.2,0,6-1,9-2.9c2.8-2.2,5.4-5.1,7.6-8.6c2.3-3.4,4-7.6,5.4-12.3
	c1.2-4.9,2-9.8,2-15.2c0-5.6-0.7-10.8-2-15.6C28.4,251.3,26.7,247.2,24.4,243.7 M137,377.5c-1.5-1.5-3.4-2.7-6-3.7
	c-2.4-0.8-5.5-1.3-9.2-1.3h-10.8c-2.5,0-4.5,0.8-5.7,2.7c-1.1,1.7-1.7,4.7-1.7,9v24.5h13.5c8.1,0,14.2-1.4,17.9-4.4
	c4-2.7,6-7.6,6-14.2c0-2.4-0.4-4.7-0.9-6.8C139.6,381.2,138.6,379.2,137,377.5 M-36.9,152.7c-23.5,0-36.7,4.4-46.4,13.9
	c-9.4,9.5-13.6,22.6-13.6,46.5v317.3h480.2c23.6,0,36.9-4.2,46.4-13.7c9.5-9.5,13.8-22.8,13.8-46.5V152.7H-36.9z M39.3,372.5H-2
	c-2.7,0-4.4,0.8-5.7,2.7c-1.2,1.7-1.7,4.7-1.7,8.8v15.6h47.9v12H-9.5v51.2H-34v-85.9c0-3.2,0.2-5.9,0.9-8.1c0.9-2,1.7-3.7,2.7-4.9
	c1-1.3,2.3-2.2,3.7-2.5c1.4-0.7,2.8-0.9,4.1-0.9h61.8V372.5z M53,291.8c-2.4,6.2-5.7,11.6-9.8,16.2c-4.1,4.5-9,8.3-14.4,11
	c-5.5,2.6-11.5,4.1-17.7,4.1h-38c-2.3,0-4.1-1-5.1-2.5c-1.2-1.7-1.8-3.7-1.8-6.2v-85c0-2.2,0.5-4.4,1.8-6.1c1.1-1.5,2.9-2.5,5.1-2.5
	h38c6.6,0,12.7,1.4,18.4,3.5c5.5,2.4,10.5,5.9,14.4,10.1c4.1,4.6,7.2,9.8,9.4,16.1c2.2,6.4,3.2,13.5,3.2,21.5
	C56.3,279,55.3,285.6,53,291.8 M140.3,462.9c-0.3-1.7-0.6-3.4-0.6-4.9c-0.4-1.5-0.6-3.2-0.7-5.1c-0.2-1.7-0.5-3.5-0.6-5.7
	c-0.3-2-0.6-4.6-0.9-7.6c-0.4-4.1-1.4-7.3-3-9.5c-1.6-2.5-3.6-4.4-6.1-5.9c-2.3-1.4-4.7-2.2-7.5-2.7c-2.6-0.5-5.3-0.7-7.9-0.7h-9.2
	v42.1H78.9v-86c0-3.2,0.4-5.9,1.1-8.1c0.6-2,1.6-3.9,2.8-4.9c1.1-1.2,2.3-2.2,3.7-2.5c1.3-0.7,2.7-0.7,4.1-0.7h41.7
	c5,0,9.1,0.3,12.8,1.2c3.6,0.8,6.7,2,9.2,3.2c2.6,1.2,4.4,3.1,6,4.9c1.5,2,2.7,3.9,3.4,5.9c0.8,2,1.4,4.3,1.7,6.4
	c0.2,2.2,0.4,4,0.4,6.2c0,3.6-0.4,7.1-1.4,10.2c-0.9,3.2-2.4,6.1-4.2,8.5c-1.9,2.5-4.2,4.4-7.2,5.9c-2.9,1.7-6.2,2.5-10.1,2.7
	c3.5-0.2,6.2,0.5,8.6,2c2.3,1.7,4.3,3.7,5.9,6.4c1.7,2.5,2.9,5.7,3.9,9c0.8,3.4,1.5,6.8,2.1,10l3.2,19.8H140.3z M167.7,291.7
	c0,5.4-1.2,10.3-3.3,14.9c-2.1,4.2-5,7.8-9,10.8c-3.8,3-8.4,5.2-13.8,6.9c-5.5,1.8-11.3,2.5-17.9,2.5c-6.5,0-12.4-0.8-17.7-2.5
	c-5.5-1.7-10.1-3.9-13.9-6.9c-3.8-3-6.9-6.6-9.1-10.8c-2-4.5-3-9.5-3-14.9v-71.3h24.7V295c0,2.7,0.5,5.1,1.5,7.4
	c1.1,2.4,2.4,4.2,4.1,6.1c1.9,1.5,3.7,3,6.2,4c2.2,1,4.8,1.5,7.3,1.5c2.7,0,5.2-0.5,7.5-1.5c2.3-1,4.4-2.5,6-4c1.7-1.9,3-3.7,4-6.1
	c1.1-2.4,1.5-4.7,1.5-7.4v-74.7h24.8V291.7z M270.9,372.5h-41.2c-2.5,0-4.5,0.8-5.7,2.7c-1.2,1.7-1.8,4.7-1.8,8.8v15.6h48v12h-48
	v27.7c0,4.2,0.6,7.1,1.8,8.8c1.1,1.9,3.1,2.9,5.7,2.9h41.2v11.8h-61.7c-1.4,0-2.7-0.4-4.2-0.7c-1.3-0.5-2.5-1.4-3.6-2.6
	c-1.1-1.3-2.1-2.8-2.7-5.2c-0.5-1.8-0.9-4.7-0.9-7.9v-69.5c0-3.2,0.4-5.9,0.9-8.1c0.6-2,1.7-3.7,2.7-4.9c1.1-1.3,2.3-2.2,3.6-2.5
	c1.5-0.7,2.8-0.9,4.2-0.9h61.7V372.5z M278,233h-31.3v90.1h-24.8V233h-31.2v-12.2H278V233z M382.9,372.5h-41.2
	c-2.7,0-4.6,0.8-5.8,2.7c-1,1.7-1.8,4.7-1.8,8.8v15.6h48v12h-48v27.7c0,4.2,0.8,7.1,1.8,8.8c1.2,1.9,3,2.9,5.8,2.9h41.2v11.8h-61.6
	c-1.3,0-2.7-0.4-4.2-0.7c-1.4-0.5-2.6-1.4-3.7-2.6c-1-1.3-1.9-2.8-2.5-5.2c-0.9-1.8-1.2-4.7-1.2-7.9v-69.5c0-3.2,0.3-5.9,1.2-8.1
	c0.7-2,1.5-3.7,2.5-4.9c1.1-1.3,2.4-2.2,3.7-2.5c1.5-0.7,2.9-0.9,4.2-0.9h61.6V372.5z M359.2,282.8v40.3H333v-40.6L297,220.8h26.5
	l25.7,47.3l24.5-47.3H393L359.2,282.8z"/>
</svg>
