<?xml version="1.0" encoding="utf-8"?>
<!-- Generator: Adobe Illustrator 25.4.1, SVG Export Plug-In . SVG Version: 6.00 Build 0)  -->
<svg version="1.0" id="Layer_1" xmlns="http://www.w3.org/2000/svg" xmlns:xlink="http://www.w3.org/1999/xlink" x="0px" y="0px"
	 viewBox="0 0 400 300" style="enable-background:new 0 0 400 300;" xml:space="preserve">
<style type="text/css">
	.st0{fill:#3D90C3;}
	.st1{fill:#FFFFFF;}
	.st2{fill:#231F20;}
</style>
<g id="layer1">
	<g id="g12376">
		<path id="path12378" class="st0" d="M231.9,135.6V90.1H168V144c3.8-3.3,8.5-5.3,13.5-5.8c11.2-0.7,15.8,4.7,26.4,6.5
			c8.7,1.5,17.5-1.6,23.5-8.1c0.2-0.2,0.4-0.6,0.5-0.9L231.9,135.6"/>
	</g>
	<g id="g12380">
		<path id="path12382" class="st1" d="M174.1,134.2c2.1-1.1,4.1-1.7,8.6-2c10.9-0.6,15,3.4,25.3,5c8.1,1.2,12.7-0.6,16.1-2.8
			c0.8-0.5,1.6-1,2.3-1.7c0.9-0.7,1.1-1.2,0.9-1.7c0-0.2-0.2-0.2-0.5,0.1l-0.7,0.5c-8.1,5.7-18.8,2.3-28-0.6
			c-8.6-2.7-19.3-1.5-24.1,1.9c-0.4,0.3-0.7,0.6-1,1c-0.1,0.2-0.4,1-0.1,0.9S173.7,134.3,174.1,134.2 M186.7,120l-9.2-12v12.1h-4.1
			v-19h3.9l8.9,11.7v-11.7h4.1v19L186.7,120"/>
	</g>
	<g id="g12384">
		<path id="path12386" class="st1" d="M202.6,120.4c-5.3,0.1-9.6-4.1-9.7-9.4c0-0.1,0-0.2,0-0.4v-0.1c-0.1-5.3,4.1-9.7,9.5-9.8
			c0.1,0,0.3,0,0.4,0c2.8-0.1,5.5,0.9,7.5,2.9l-2.7,3.1c-1.3-1.3-3-2.1-4.9-2.2c-3.1,0.1-5.6,2.6-5.5,5.7c0,0.1,0,0.1,0,0.2v0.1
			c0,3.2,2.2,6,5.5,6c1.9,0,3.7-0.8,5-2.2l2.7,2.7C208.5,119.3,205.6,120.6,202.6,120.4 M213.2,120.1v-19h4.2v15.2h9.5v3.8
			L213.2,120.1"/>
	</g>
	<g id="g12388">
		<path id="path12390" class="st2" d="M70.1,185.1l-13.9-18.2v18.2H50v-28.7h5.8l13.4,17.6v-17.6h6.2v28.7L70.1,185.1 M109,170.8
			c0.2-4.8-3.6-8.8-8.4-9c-0.1,0-0.2,0-0.3,0c-5.1,0-8.6,4-8.6,8.9v0.1c-0.2,4.8,3.6,8.8,8.4,9c0.1,0,0.2,0,0.3,0
			C105.5,179.8,109,175.8,109,170.8L109,170.8z M100.3,185.6c-8.8,0-15.2-6.6-15.2-14.7v-0.1c0-8.1,6.4-14.8,15.3-14.8
			s15.2,6.6,15.2,14.7v0.1C115.6,178.9,109.2,185.6,100.3,185.6 M142,166.2c0-2.7-1.9-4.1-4.9-4.1h-6.3v8.2h6.4
			C140.3,170.4,142,168.7,142,166.2L142,166.2z M141.9,185.1l-6.1-9.1h-5v9.2h-6.3v-28.7h13.1c6.8,0,10.8,3.6,10.8,9.4v0.1
			c0.2,4-2.3,7.6-6.1,8.9l7,10.2L141.9,185.1 M189.1,185.3h-5.5l-6.5-18.8l-6.5,18.8h-5.4l-9.8-28.9h6.8l5.9,19.4l6.4-19.5h5.4
			l6.4,19.5l5.9-19.4h6.6L189.1,185.3 M206.4,185.1v-28.6h21.6v5.6h-15.4v5.8h13.5v5.6h-13.5v6h15.6v5.6L206.4,185.1 M250.6,185.6
			c-8.9,0-15.1-6.3-15.1-14.7v-0.1c-0.1-8.1,6.4-14.8,14.6-14.8c0.1,0,0.3,0,0.4,0c5.2,0,8.3,1.4,11.3,3.9l-4,4.8
			c-2-1.9-4.7-3-7.5-2.9c-4.6,0-8.2,4.1-8.2,8.9v0.1c0,5.2,3.6,9.1,8.7,9.1c2.1,0.1,4.2-0.5,5.9-1.7V174h-6.3v-5.4h12.4V181
			C259.3,184,255,185.6,250.6,185.6 M272.6,185.1h6.3v-28.6h-6.3V185.1z M301.7,163.8l-3.7,9.3h7.6L301.7,163.8z M310.4,185.1
			l-3.2-6.4h-11.5l-2.6,6.4h-6.4l12.4-28.8h5.8l12.3,28.9L310.4,185.1 M344.7,185.1l-13.9-18.2v18.2h-6.2v-28.7h5.8l13.4,17.6v-17.6
			h6.2v28.7L344.7,185.1 M130.9,209.9c-4,0.1-7.3-3.1-7.4-7.1c0-0.1,0-0.2,0-0.3l0,0c-0.1-4,3.1-7.3,7.1-7.4c0.1,0,0.2,0,0.3,0
			c2.1-0.1,4.2,0.7,5.6,2.2l-2,2.3c-0.9-1-2.3-1.6-3.7-1.7c-2.3,0.1-4.2,2-4.2,4.3c0,0,0,0.1,0,0.1l0,0c-0.1,2.3,1.6,4.4,4,4.5
			c0.1,0,0.1,0,0.2,0c1.4,0,2.8-0.6,3.8-1.7l2,2C135.3,209,133.1,210,130.9,209.9"/>
	</g>
	<path id="path12394" class="st2" d="M150.1,200.2c0-1.4-0.9-2.1-2.5-2.1h-3.1v4.1h3.2C149.2,202.3,150.1,201.5,150.1,200.2
		L150.1,200.2z M150,209.7l-3-4.6h-2.5v4.6h-3.2v-14.3h6.6c3.4,0,5.4,1.8,5.4,4.7l0,0c0.1,2-1.2,3.8-3.1,4.4l3.5,5.1L150,209.7
		 M164.1,209.9c-3.9,0-6.2-2.1-6.2-6.4v-8.2h3.1v8.1c0,2.3,1.2,3.5,3.1,3.5s3.1-1.2,3.1-3.4v-8.2h3.1v8.1
		C170.4,207.7,168,209.9,164.1,209.9 M175.8,209.6h3.2v-14.3h-3.2L175.8,209.6z M189.7,209.8c-2.2,0-4.4-0.8-6.1-2.3l1.9-2.2
		c1.2,1.1,2.7,1.7,4.3,1.7c1.3,0,2.1-0.5,2.1-1.4l0,0c0-0.8-0.5-1.2-2.9-1.8c-2.9-0.7-4.8-1.5-4.8-4.4l0,0c0-2.6,2.1-4.3,5-4.3
		c1.9,0,3.8,0.6,5.3,1.8l-1.6,2.4c-1.1-0.8-2.4-1.3-3.7-1.4c-1.2,0-1.9,0.6-1.9,1.2l0,0c0,0.9,0.6,1.2,3.1,1.9
		c2.9,0.8,4.6,1.8,4.6,4.3l0,0C194.9,208.3,192.8,209.9,189.7,209.8 M199.7,209.7v-14.3h10.8v2.8h-7.7v2.9h6.8v2.8h-6.8v3h7.8v2.8
		L199.7,209.7 M223.8,209.7v-14.3h3.1v11.5h7.1v2.9L223.8,209.7 M238.6,209.7h3.1v-14.3h-3.1V209.7z M257.4,209.7l-6.9-9.1v9.1h-3.1
		v-14.3h2.9l6.7,8.8v-8.8h3.1v14.3H257.4 M265.5,209.7v-14.3h10.8v2.8h-7.7v2.9h6.8v2.8h-6.8v3h7.8v2.8L265.5,209.7"/>
</g>
</svg>
