<?xml version="1.0" encoding="utf-8"?>
<!-- Generator: Adobe Illustrator 22.1.0, SVG Export Plug-In . SVG Version: 6.00 Build 0)  -->
<!DOCTYPE svg PUBLIC "-//W3C//DTD SVG 1.1//EN" "http://www.w3.org/Graphics/SVG/1.1/DTD/svg11.dtd">
<svg version="1.1" id="Layer_1" xmlns="http://www.w3.org/2000/svg" xmlns:xlink="http://www.w3.org/1999/xlink" x="0px" y="0px"
	 viewBox="0 0 841.9 595.3" enable-background="new 0 0 841.9 595.3" xml:space="preserve">
<path fill="#005489" d="M612,307c11.4-26,17.8-54.6,17.8-84.8C629.8,104.5,533.8,9,415.4,9c-118.4,0-214.4,95.5-214.4,213.2
	c0,31.4,6.9,61.2,19.1,88.1c-37.3,1.4-60.8-12.3-93.4-26.6c26.7,37.6,90,61.4,149.5,48.2c61.5-13.6,98.8-29.6,176.9-26.6
	c51.7,2,110.7,33.3,163.4,44.2c52.6,10.9,95.1-33.7,103.3-56.5C693.2,320.5,655.1,317.9,612,307 M606,294.9c0,0-12.1-13.6-18.7-19.2
	c-6.6-5.6-19.7-4.5-27.3-20.2c-4.5,6.6-8.6,5.5-13.6,6.6c-5.1,1-18.2-1.5-23.7,2c-5.6,3.5-8.1,6.1-8.1,6.1s1-14.1,10.6-21.2
	c9.6-7.1,26.3-16.4,26.3-16.6c0.4-5.9-1.6-47.7-62.7-82.4c-26.7-15.2-50.4-19.9-68.7-20.4c-25-0.6-40.3,6.8-40.3,6.8s0,5.6,3,8.1
	c3,2.5,7.6-2.5,13.1,1.5c5.5,4,7.1,11.1,15.6,0c-0.5,8.6-2.5,21.7-25.2,21.7c-22.7,0-42.4-19.7-42.4-19.7s-34.8,13.6-47.5,13.6
	c-1.7,0.8-4.1,2-6.8,3.3c-6.9,3.3-15.8,7.4-20.2,7.2c-6.3-0.3-6.8-9.5-3.2-13c3.5-3.5,15.1-13.1,15.7-14.6
	c0.5-1.5-2.5-18.7,7.6-32.3c7.9-10.6,22.4-27,43.2-38.5c6-3.3,12.4-6.2,19.4-8.4c31.3-10.1,76.2-10.6,84.3-9.6c1.3,0.2,3,0,4.9-0.4
	c9.9-2.1,27-10.5,41.5-9.7c17.2,1,26.8,6.1,26.3,12.1c-0.5,6.1-14.1,5.5-18.7,8.1c-2.8,1.6-7.6,6.1-7.6,6.1s29.9,14.4,53,41.9
	c3.4,4.1,6.8,8.3,10.2,12.7c26.3,33.8,30.3,108.1,30.3,108.1S610.1,264.2,606,294.9"/>
<path fill="#005489" d="M148.5,360c36.6,11.9,80.2,18.4,137.4,8.5c61.5-10.7,104.1-38.2,169.3-39.2c81.6-1.2,143.1,57,209.5,41.1
	c-15.7,13.9-44.1,36.7-86.6,25.8c-42.5-10.9-80.5-29.9-122.3-29.9c-63,0-131.3,26.6-181.9,29.7C230,398.7,173.4,389.8,148.5,360"/>
<polygon fill="#005489" points="1.2,444.4 1.2,455.4 30.6,455.4 30.6,510.2 43.5,510.2 43.5,455.4 72.9,455.4 72.9,444.4 "/>
<path fill="#005489" d="M100.7,444.4h14.7l31.9,65.8h-13.6l-6.9-15.1H88.9l-7,15.1H68.3L100.7,444.4z M121.7,484L108,454.7L94.2,484
	H121.7z"/>
<polygon fill="#005489" points="160.3,444.4 173.8,444.4 217.8,491.9 217.8,444.4 230.1,444.4 230.1,510.1 218.3,510.1 172.6,460.9 
	172.6,510.1 160.3,510.1 "/>
<path fill="#005489" d="M318,476.4v34.5h-7.8l-2.5-6.8c-5,3.2-11.9,7.7-24.6,7.7c-16.8,0-37.2-8.2-37.2-34.4
	c0-17.5,10.6-34.6,36.8-34.6c15.1,0,31.7,5.6,34.8,22.2h-13.1c-1.5-3.3-5.1-11.1-20.2-11.1c-20.6,0-25.5,13.9-25.5,23.1
	c0,15.6,10.5,23.5,24.4,23.5c12.7,0,19.7-4.4,22.8-13.7h-23.1v-10.3H318z"/>
<path fill="#005489" d="M360.5,444.4h14.7l31.9,65.8h-13.6l-6.9-15.1h-37.9l-7,15.1h-13.7L360.5,444.4z M381.5,484l-13.8-29.3
	L354,484H381.5z"/>
<polygon fill="#005489" points="420.1,444.4 432.9,444.4 432.9,498.8 480.6,498.8 480.6,510.1 420.1,510.1 "/>
<path fill="#005489" d="M529.9,442.7c28.9,0,39.2,17,39.2,35c0,13.7-8.1,34-39.2,34c-31.1,0-39.2-20.3-39.2-34
	C490.7,459.8,500.9,442.7,529.9,442.7 M556.2,477c0-15.8-11.3-23.3-26.3-23.3c-15,0-26.3,7.4-26.3,23.3c0,18.6,14,23.7,26.3,23.7
	S556.2,495.7,556.2,477"/>
<path fill="#005489" d="M619.8,442.7c28.9,0,39.2,17,39.2,35c0,13.7-8,34-39.2,34c-31.1,0-39.2-20.3-39.2-34
	C580.6,459.8,590.9,442.7,619.8,442.7 M646.1,477c0-15.8-11.3-23.3-26.3-23.3c-15,0-26.3,7.4-26.3,23.3c0,18.6,14,23.7,26.3,23.7
	C632.1,500.7,646.1,495.7,646.1,477"/>
<polygon fill="#005489" points="686,460.3 685.8,460.3 685.8,510.1 674.4,510.1 674.4,444.4 691.7,444.4 712.2,493.1 733.2,444.4 
	750.1,444.4 750.1,510.1 738.7,510.1 738.7,460.3 738.5,460.3 717.4,510.1 707.2,510.1 "/>
<path fill="#005489" d="M802.4,454.7l13.8,29.3h-27.5L802.4,454.7z M795.1,444.4l-32.4,65.8h13.7l7-15.1h37.9l6.9,15.1h13.6
	l-31.9-65.8H795.1z"/>
<rect x="91.1" y="545.4" fill="#005489" width="7.6" height="38.7"/>
<path fill="#005489" d="M149,557.1c-1.2-3.5-4.4-6.4-13.6-6.4c-5.1,0-10.3,1.3-10.3,4.8c0,1.6,1,3.4,8.7,4.4l9.2,1.4
	c8.7,1.3,13.8,4.7,13.8,11.2c0,9.2-8.7,12.6-19.1,12.6c-16.6,0-20.6-8.2-21.5-11.1l7.3-2.3c1.4,2.8,4.3,6.9,14.5,6.9
	c6.2,0,11.3-2,11.3-5.4c0-2.5-2.9-4.2-8.4-4.8l-9.3-1.3c-8.9-1.2-13.9-5.1-13.9-11c0-11.6,15.1-11.6,18-11.6
	c16.7,0,19.5,7.7,20.5,10.4L149,557.1z"/>
<polygon fill="#005489" points="173.8,545.4 173.8,584 209.4,584 209.4,577.3 181.4,577.3 181.4,545.4 "/>
<path fill="#005489" d="M245.1,551.4l8.1,17.2H237L245.1,551.4z M240.8,545.4L221.7,584h8l4.1-8.9h22.3l4.1,8.9h8l-18.8-38.7H240.8z
	"/>
<polygon fill="#005489" points="317.6,545.4 317.6,573.3 291.8,545.4 283.8,545.4 283.8,584 291,584 291,555.1 318,584 324.9,584 
	324.9,545.4 "/>
<path fill="#005489" d="M344.7,545.4h18.6c12.2,0,22,5.2,22,19.1c0,13.2-8.9,19.6-21.7,19.6h-19V545.4z M359.9,577.5
	c12.9,0,17.9-3.9,17.9-13c0-9.5-5.2-12.7-17.9-12.7h-7.7v25.7H359.9z"/>
<path fill="#005489" d="M432.4,545.4h23.3c9.2,0,15.8,2.1,15.8,11.5c0,7.1-5.1,11.1-10.8,11.4l11.9,15.8h-9.3L452,568.8h-12V584
	h-7.6V545.4z M454.6,562.5c6.2,0,9.3-0.9,9.3-5.5c0-4.5-3.1-5.4-9.3-5.4H440v10.9H454.6z"/>
<polygon fill="#005489" points="490.4,545.4 490.4,584 525.7,584 525.7,577.5 497.9,577.5 497.9,567.3 521.3,567.3 521.3,560.8 
	497.9,560.8 497.9,551.8 525.1,551.8 525.1,545.4 "/>
<path fill="#005489" d="M572.5,557.1c-1.2-3.5-4.4-6.4-13.6-6.4c-5.1,0-10.3,1.3-10.3,4.8c0,1.6,1,3.4,8.7,4.4l9.2,1.4
	c8.7,1.3,13.8,4.7,13.8,11.2c0,9.2-8.7,12.6-19.1,12.6c-16.6,0-20.6-8.2-21.5-11.1l7.3-2.3c1.4,2.8,4.3,6.9,14.5,6.9
	c6.2,0,11.3-2,11.3-5.4c0-2.5-2.9-4.2-8.4-4.8l-9.3-1.3c-8.9-1.2-13.9-5.1-13.9-11c0-11.6,15.1-11.6,18-11.6
	c16.7,0,19.5,7.7,20.5,10.4L572.5,557.1z"/>
<path fill="#005489" d="M617.9,544.4c17,0,23,10,23,20.6c0,8-4.7,20-23,20c-18.3,0-23-12-23-20C594.9,554.4,600.9,544.4,617.9,544.4
	 M633.4,564.6c0-9.3-6.7-13.7-15.5-13.7c-8.8,0-15.5,4.4-15.5,13.7c0,11,8.3,13.9,15.5,13.9C625.1,578.5,633.4,575.5,633.4,564.6"/>
<path fill="#005489" d="M658.2,545.4h23.3c9.2,0,15.8,2.1,15.8,11.5c0,7.1-5.1,11.1-10.8,11.4l11.9,15.8H689l-11.2-15.2h-12V584
	h-7.6V545.4z M680.4,562.5c6.2,0,9.3-0.9,9.3-5.5c0-4.5-3.1-5.4-9.3-5.4h-14.6v10.9H680.4z"/>
<polygon fill="#005489" points="712.6,545.4 712.6,551.8 729.9,551.8 729.9,584 737.5,584 737.5,551.8 754.8,551.8 754.8,545.4 "/>
</svg>
