<?xml version="1.0" encoding="utf-8"?>
<!-- Generator: Adobe Illustrator 26.0.3, SVG Export Plug-In . SVG Version: 6.00 Build 0)  -->
<svg version="1.0" id="Layer_1" xmlns="http://www.w3.org/2000/svg" xmlns:xlink="http://www.w3.org/1999/xlink" x="0px" y="0px"
	 viewBox="0 0 906 564.9" style="enable-background:new 0 0 906 564.9;" xml:space="preserve">
<style type="text/css">
	.st0{fill:#287DFA;}
	.st1{fill:#FFB400;}
</style>
<path class="st0" d="M364.8,234.1c-10.6,0-20.7,4.8-27.5,12.9v-8.3h-27.5v134.2h30.4v-47.1c6.9,5.7,15.6,8.8,24.6,8.8
	c27.1,0,48.8-22.5,48.8-50.4C413.6,256.6,391.5,234.1,364.8,234.1z M413.6,284.6c0-27.9-21.7-50.4-48.8-50.4 M361.5,307.1
	c-11.7,0-21.3-10-21.3-22.1c0-12.5,9.6-22.1,21.3-22.1s21.3,10,21.3,22.1c0.4,11.7-8.7,21.6-20.5,22
	C362,307.1,361.7,307.1,361.5,307.1L361.5,307.1z"/>
<circle class="st1" cx="445.7" cy="316.6" r="18.3"/>
<circle class="st0" cx="273.1" cy="209.1" r="17.1"/>
<rect x="258.1" y="238.7" class="st0" width="30.4" height="91.7"/>
<polygon class="st0" points="78,196.2 78,221.6 117.6,221.6 117.6,330.4 148,330.4 148,221.6 187.6,221.6 187.6,196.2 "/>
<path class="st0" d="M527.8,307.1c-11.7,0-21.3-10-21.3-22.1c0-12.5,9.6-22.1,21.3-22.1c5.9-0.1,11.5,2.3,15.4,6.7l20-20
	c-9.4-9.4-22.1-14.7-35.4-14.6c-27.9,0-50.5,22.5-50.5,50.4c0,27.9,22.5,50.5,50.4,50.5c13.3,0,26.1-5.2,35.6-14.6l-20-20
	C539.5,304.1,534.1,307.1,527.8,307.1z"/>
<path class="st0" d="M795.1,234.1c-12.5,0-22.5,4.6-28.3,15c-5.4-9.6-15.4-15-27.5-15s-20.8,5.4-26.7,15v-10.4H685V330h30.4v-56.7
	c0-7.9,5.8-14.2,13.3-14.2s13.3,6.3,13.3,14.2v57.1h28.8v-57.1c0-7.9,5.8-14.2,13.3-14.2s13.3,6.3,13.3,14.2v57.1H828v-62.9
	C828.4,247,815.5,234.1,795.1,234.1z"/>
<path class="st0" d="M619.5,234.1c-27.9,0-50.4,22.6-50.4,50.5c0,27.9,22.6,50.4,50.5,50.4c27.9,0,50.4-22.6,50.4-50.5l0,0
	C669.6,256.6,647.1,234.1,619.5,234.1z M619.5,307.1c-11.7,0-21.3-10-21.3-22.1c0-12.5,9.6-22.1,21.3-22.1s21.3,10,21.3,22.1
	S631.2,307.1,619.5,307.1L619.5,307.1z"/>
<path class="st0" d="M236.4,238.3c-11.2-0.1-21.6,5.6-27.5,15v-14.6h-27.5v91.7h30.4v-38.4c0-15.8,11.7-25.4,25.4-25.4
	c1.7,0,3.3,0.4,4.6,0.4v-27.9C240.1,238.6,238.3,238.3,236.4,238.3z"/>
</svg>
