<?xml version="1.0" encoding="utf-8"?>
<!-- Generator: Adobe Illustrator 19.2.1, SVG Export Plug-In . SVG Version: 6.00 Build 0)  -->
<svg version="1.1" id="layer" xmlns="http://www.w3.org/2000/svg" xmlns:xlink="http://www.w3.org/1999/xlink" x="0px" y="0px"
	 viewBox="0 0 652 652" style="enable-background:new 0 0 652 652;" xml:space="preserve">
<style type="text/css">
	.st0{fill:#A98D5D;}
</style>
<g id="g10" transform="matrix(1.3333333,0,0,-1.3333333,0,46.666667)">
	<g id="g12" transform="scale(0.1)">
		<path id="path14" class="st0" d="M3627.3-2468.4h14.2l21.2-69.5l21,69.5h14.2v-82.4h-9.4v69.3l-21.1-69.3h-9.7l-21.1,69.3v-69.3
			h-9.4V-2468.4z M3554.7-2468.4h59.6v-9.7h-24.9v-72.7h-10.2v72.7h-24.6V-2468.4"/>
		<path id="path16" class="st0" d="M3273.3-2758.7c30.3-6.9,53.7-10.4,75.9-10.4c73.3,0,121,35.6,121,89.4
			c0,21.9-8.4,42.1-23.4,54.5c-13.6,12-23.9,16.6-63,30.3c-35.4,12.4-47.8,18.5-57.3,27.9c-5.1,5.6-8.4,14.2-8.4,22.6
			c0,24.1,22.2,39.4,56.6,39.4c16.2,0,32.9-3.8,47.8-9.8c8.1-3.5,13.2-6.5,26-14.7l-6.4,49.8l-6.9,1.3c-22.9,3.8-36.2,5.1-52.8,5.1
			c-69,0-108.2-29-108.2-79.5c0-23.2,10.2-39.9,31.4-53.3c13.2-8.1,23.9-12.7,52.4-23.4c9.9-3.5,19.2-6.9,27.3-9.9
			c9.9-3.5,17.5-7.4,23.4-11.6c11.1-7.2,17.6-20.1,17.6-34.1c0-31.4-27.8-51.5-69.8-51.5c-34.6,0-61.1,9.4-89.9,32.2L3273.3-2758.7z
			 M2906-2764h194.6l16.6,50.5c-8.5-6.9-15.3-10.7-24.7-13.7c-8.4-2.9-15.8-3.8-31.1-4.6h-98.4v220.5c0,18,3.8,25.7,14.8,33H2906
			c11.5-7.4,14.8-15,14.8-33v-220.2C2920.8-2749,2917.5-2757.1,2906-2764 M2608.9-2731.8v110h72.9c13.2,0,20.4-0.4,24.7-2
			c4.3-1.3,6.9-2.6,12.7-7.8l-2,44.6c-5.1-2.6-7.2-2.6-22.2-2.6h-86.1v79.1h85.6c20.6,0,26.9-1.6,40.2-11l1.6-1.3l-5.1,44.5h-179.4
			c11.5-7.4,15-15,15-33v-220.2c0-17.5-3.5-25.7-15-32.5h189.3l13.1,49.8l-2.6-2.2c-16.9-12.7-27.6-15.3-61.2-15.3H2608.9z
			 M2249.8-2764h72c-11,6.9-14.8,15-14.8,32.5v221h46.4c14.5,0,23.4-1.3,30.6-5.1c5.6-2.9,8.9-5.9,16.2-15l-7.4,52.3h-214.3
			l-7.1-52.3c13.6,16.7,21.7,20.1,46.9,20.1h46.4v-221C2264.7-2749,2261.4-2757.1,2249.8-2764 M1790.6-2623.8
			c0,71.4,41.8,118.1,104.9,118.1c64.3,0,108.6-47,108.6-114.8c0-68.9-43.8-117.3-106.5-117.3
			C1834.9-2737.8,1790.6-2690.6,1790.6-2623.8 M1746.2-2623.5c0-83.4,63.9-145.6,150.5-145.6c86.4,0,152.4,64.2,152.4,148.6
			c0,84.3-65.1,147-152.9,147C1808.9-2473.5,1746.2-2536.5,1746.2-2623.5 M1337.3-2764h72.1c-11.2,6.9-15,15-15,32.5v106.3h128.2
			v-106.3c0-17.5-3.4-25.7-14.8-32.5h72.1c-11.2,6.9-15,15-15,32.5v220.2c0,18,3.8,25.7,15,33h-72.1c11.5-7.4,14.8-15,14.8-33v-82.2
			h-128.2v82.2c0,18,3.8,25.7,15,33h-72.1c11.5-7.4,15-15,15-33v-220.2C1352.2-2749,1348.7-2757.1,1337.3-2764"/>
		<path id="path18" class="st0" d="M4277.5-1693.5v250.3c108.4,0,138.4-2.2,171.6-11.1c50.9-13.4,85.1-61.2,85.1-121.3
			c0-83.4-64.1-137.9-160.4-137.9C4341.7-1713.6,4317.3-1709.1,4277.5-1693.5 M4129.2-2103h187c-28.7,17.9-38.7,38.9-38.7,84.5
			v246.9c43.2-14.3,80.9-21,124-21c148.3,0,252.2,90.1,252.2,220.2c0,82.4-43.2,154.7-112.9,186.9c-32,14.5-71.9,22.3-126.1,23.5
			c-8.9,1.1-26.7,1.1-53.1,1.1h-232.5c29.8-19,38.8-38.9,38.8-85.6v-571.9C4168-2064.1,4159-2085.1,4129.2-2103 M2900.2-2103h156.1
			c-23.3,23.5-27.7,33.4-27.7,57.9c0,6.7,0,15.6,1.1,21.2l60.9,493.8l256.7-586.2l253.5,586.2l61.9-473.8c1.1-8.9,1.1-22.2,1.1-33.3
			c0-32.4-6.5-49-27.6-65.7h178.1c-16.6,16.7-23.3,24.6-28.7,35.6c-7.8,13.4-10,22.3-14.3,60.1l-73.2,549.6
			c-2.1,16.7-2.1,23.4-2.1,33.3c0,30.2,5.4,42.3,30.9,63.5h-147.1l-221.3-512.9l-225.8,512.9h-149.6c24.4-21.2,31.1-34.5,31.1-60.1
			c0-10-1.1-31.1-3.3-43.4l-67.4-552.9C2937.9-2065.2,2927.8-2085.1,2900.2-2103 M1955.1-1360.9c30-19,38.7-38.9,38.7-85.6v-354.9
			c0-119.1,16.6-173.5,67.6-225.7c58.7-59,137.1-89.1,235.7-89.1c132.8,0,233.5,59,274.4,160.2c15.6,38.9,21.1,76.9,21.1,146.9
			v362.7c0,46.7,8.9,66.7,38.7,85.6h-164.8c29.8-19,38.7-38.9,38.7-85.6v-358.2c0-97.9-11-137.9-46.5-174.6
			c-37.6-38-89.6-56.8-151.5-56.8c-75.3,0-139.5,28.9-172.7,78.9c-24.4,36.7-31.1,71.3-31.1,154.7v356c0,46.7,10,66.7,38.7,85.6
			H1955.1z M1219-1656.8v212.5c32,1.1,45.3,1.1,60.7,1.1c73,0,109.7-6.7,136.2-26.8c22.2-15.5,35.4-43.4,35.4-75.6
			c0-54.5-36.5-96.8-91.8-106.9c-22.2-4.4-45.3-6.7-82-6.7C1259.8-1659.1,1247.7-1659.1,1219-1656.8 M1070.5-2103h187.2
			c-28.9,17.9-38.7,38.9-38.7,84.5v283.8c44.2-1.1,60.7-5.6,85.1-19c24.4-14.5,47.5-38.9,75.2-77.8L1572-2103h181.4
			c-36.5,15.6-44.2,20.1-57.6,31.3c-14.3,9.9-24.2,21.1-41,44.5l-13.2,17.7l-144.9,199.1c-7.8,11.2-12.2,16.7-13.2,19
			c-5.6,7.8-12.3,15.5-18.8,24.4c-10,11.1-16.7,19-23.3,24.5c-8.9,8.9-14.4,12.3-28.9,22.2c106.3,22.3,161.7,82.4,161.7,175.9
			c0,80-47.7,145.7-120.7,167.9c-37.6,11.2-64.1,13.4-140.5,14.5c-28.9,0-49.9,1.1-63.1,1.1h-179.4c30-19,38.7-38.9,38.7-85.6
			v-571.9C1109.3-2064.1,1100.5-2085.1,1070.5-2103 M269.3-1444.3H390v-574.1c0-45.6-8.9-66.7-38.7-84.5h187
			c-28.9,17.9-38.7,38.9-38.7,84.5v574.1h120.5c37.6,0,27.9-0.2,66-0.2c0,0,32.4,1.1,49.6-9.4l-12.6,92.9"/>
		<path id="path20" class="st0" d="M389.4-1444.5l-120,0.2c-37.6,0-27.9-0.2-66-0.2c-1.1,0-32.2,1.1-49.6-9.4l12.7,92.9h556.6"/>
	</g>
</g>
</svg>
